<?xml version="1.0" standalone="no"?>
<!DOCTYPE svg PUBLIC "-//W3C//DTD SVG 20010904//EN"
 "http://www.w3.org/TR/2001/REC-SVG-20010904/DTD/svg10.dtd">
<svg version="1.0" xmlns="http://www.w3.org/2000/svg"
 width="810.000000pt" height="810.000000pt" viewBox="0 0 810.000000 810.000000"
 preserveAspectRatio="xMidYMid meet">
<metadata>
Created by potrace 1.11, written by Peter Selinger 2001-2013
</metadata>
<g transform="translate(0.000000,810.000000) scale(0.100000,-0.100000)"
fill="#000000" stroke="none">
<path d="M1380 4340 l0 -330 178 0 177 0 0 -160 0 -160 -177 0 -178 0 0 -105
0 -105 320 0 320 0 0 365 0 365 -135 0 -135 0 0 90 0 90 2305 0 c1530 0 2305
3 2305 10 0 6 87 10 240 10 l240 0 0 130 0 130 -2730 0 -2730 0 0 -330z"/>
<path d="M4000 4240 c0 -5 11 -10 24 -10 13 0 34 -9 47 -19 l24 -19 3 -321 c3
-311 2 -321 -18 -341 -11 -11 -33 -20 -50 -20 -20 0 -30 -5 -30 -15 0 -13 28
-15 190 -15 162 0 190 2 190 15 0 10 -10 15 -28 15 -57 0 -67 26 -70 181 l-4
139 98 0 c116 0 161 12 214 58 54 46 70 80 70 151 0 71 -12 106 -48 145 -58
61 -81 66 -359 66 -162 0 -253 -4 -253 -10z m415 -60 c83 -51 88 -200 9 -269
-30 -27 -43 -31 -89 -31 l-55 0 0 160 0 160 51 0 c34 0 63 -7 84 -20z"/>
<path d="M5100 3988 c0 -75 12 -87 34 -34 18 43 42 56 106 56 l50 0 -2 -247
-3 -248 -35 -17 c-35 -18 -35 -18 110 -18 131 1 142 2 114 14 -17 8 -34 21
-38 31 -3 9 -6 122 -6 251 l0 234 60 0 c51 0 65 -4 85 -25 14 -13 25 -33 25
-45 0 -11 5 -20 10 -20 6 0 10 29 10 68 l0 67 -260 0 -260 0 0 -67z"/>
<path d="M2202 4039 c16 -6 31 -22 37 -41 14 -40 15 -425 1 -465 -6 -17 -22
-34 -38 -40 -21 -9 3 -11 113 -12 126 0 137 1 109 13 -17 8 -34 21 -38 31 -3
9 -6 64 -6 121 l0 104 130 0 130 0 0 -104 c0 -57 -3 -112 -6 -121 -4 -10 -21
-23 -38 -31 -28 -12 -17 -13 114 -14 145 0 145 0 110 18 l-35 17 0 250 0 250
35 17 c35 18 35 18 -110 18 -131 -1 -142 -2 -114 -14 17 -8 34 -21 38 -31 3
-9 6 -61 6 -116 l0 -99 -130 0 -130 0 1 98 c1 114 5 130 45 147 25 12 12 13
-111 13 -103 0 -133 -2 -113 -9z"/>
<path d="M3053 4034 c-149 -53 -222 -248 -149 -398 51 -105 140 -156 272 -156
182 0 296 110 296 285 0 128 -69 232 -179 269 -58 20 -183 20 -240 0z m218
-63 c42 -43 59 -104 59 -206 0 -134 -35 -218 -102 -243 -55 -21 -105 -8 -149
38 -48 51 -63 113 -57 240 4 82 9 105 31 142 52 89 150 102 218 29z"/>
<path d="M3530 4032 l35 -17 0 -250 0 -250 -35 -17 c-35 -18 -35 -18 110 -18
145 0 145 0 110 18 l-35 17 -3 108 -3 107 74 0 c56 0 83 5 117 23 89 44 115
164 52 238 -44 53 -72 59 -274 59 -180 -1 -182 -1 -148 -18z m277 -37 c71 -47
52 -193 -29 -223 -65 -25 -68 -19 -68 124 l0 127 36 -6 c20 -3 47 -13 61 -22z"/>
<path d="M4812 4033 c-54 -26 -85 -76 -89 -141 -5 -77 14 -106 124 -178 48
-33 96 -67 105 -76 41 -40 7 -111 -57 -123 -48 -9 -116 31 -140 82 -32 67 -45
56 -45 -37 0 -62 3 -80 14 -80 8 0 16 5 18 12 3 9 15 9 50 0 126 -32 226 -2
266 80 47 95 12 157 -148 266 -95 64 -115 95 -89 140 36 64 133 45 177 -35 13
-24 28 -43 33 -43 5 0 9 33 9 73 l0 72 -98 2 c-74 2 -105 -1 -130 -14z"/>
<path d="M5845 4038 c-3 -7 -41 -113 -84 -236 -85 -239 -105 -281 -139 -298
-42 -21 -35 -24 56 -24 93 0 111 7 70 25 -29 13 -28 48 2 128 l22 58 80 -3 80
-3 23 -57 c13 -31 26 -70 30 -87 6 -27 3 -32 -27 -45 -31 -13 -24 -14 110 -15
93 -1 141 2 137 9 -3 6 -11 10 -17 10 -32 0 -62 58 -154 295 l-99 255 -43 0
c-25 0 -45 -5 -47 -12z m35 -218 c16 -40 30 -77 30 -81 0 -5 -27 -9 -60 -9
-33 0 -60 3 -60 8 0 11 54 161 57 158 1 -1 16 -35 33 -76z"/>
<path d="M6254 4035 c17 -7 33 -21 37 -31 4 -11 8 -118 8 -239 0 -121 -4 -228
-8 -239 -4 -10 -20 -24 -37 -31 -26 -12 -12 -13 111 -14 126 0 137 1 109 13
-39 17 -44 36 -44 159 0 86 2 97 18 97 44 0 77 -37 137 -151 l60 -114 100 -3
100 -2 -32 25 c-17 14 -52 62 -79 107 -26 46 -61 101 -77 122 -24 31 -28 41
-16 44 7 3 29 20 47 38 28 28 32 38 32 87 0 65 -23 100 -84 128 -35 16 -66 18
-226 18 -160 -1 -181 -2 -156 -14z m260 -29 c46 -19 66 -52 66 -107 0 -57 -26
-94 -78 -109 -74 -20 -72 -24 -72 110 l0 120 25 0 c14 0 41 -6 59 -14z"/>
</g>
</svg>
